<?xml version="1.0" encoding="utf-8" ?>
<svg xmlns="http://www.w3.org/2000/svg" xmlns:xlink="http://www.w3.org/1999/xlink" width="1080" height="1080">
	<path fill="#2E2F3A" transform="scale(2.10938 2.10938)" d="M244.073 104.288C261.871 103.564 278.409 122.41 291.118 131.755C306.975 127.912 318.563 127.167 334.301 131.755C341.954 124.27 371.275 101.358 383.284 106.037C400.162 112.615 388.818 168.268 384.015 180.266C385.707 186.667 387.267 192.877 387.407 199.535C416.914 201.115 408.889 211.053 404.373 210.889C400.031 210.732 392.367 208.913 387.407 208.284C387.129 211.042 386.697 213.798 386.146 216.514C389.871 217.093 402.303 221.357 404.214 224.071C406.178 226.86 404.31 231.625 400.618 231.019C396.734 230.381 389.272 226.256 384.015 224.939C382.575 226.908 381.534 228.956 380.463 231.132C384.011 232.626 407.103 245.539 395.595 250.018C393.24 250.935 380.177 240.683 375.749 238.576C369.439 247.1 361.057 253.454 351.926 258.697C356.39 264.092 358.547 266.618 363.725 271.59C386.276 293.241 398.825 320.998 399.448 352.238C422.424 350.77 430.941 329.935 416.144 314.966C412.537 311.316 407.909 308.978 404.471 305.129C392.21 291.402 390.672 270.704 401.049 255.381C422.364 223.906 446.675 251.608 432.964 265.66C415.872 283.179 427.557 283.146 439.794 297.278C466.666 328.312 450.826 375.784 409.558 381.291C404.052 382.533 398.102 382.81 392.465 382.499C388.829 388.466 384.103 392.669 378.649 396.897C384.296 396.297 427.313 395.172 430.419 397.201C432.672 398.672 433.271 401.718 431.526 403.857C429.441 406.412 423.623 405.441 420.748 405.425L89.1213 405.394C86.1596 405.4 75.8378 406.439 73.6401 404.509C71.0355 402.223 71.5973 397.135 75.3708 396.46C79.0627 395.8 83.4721 396.249 87.2615 396.258L110.233 396.275C110.417 387.31 114.456 378.512 120.697 372.143C130.685 361.951 139.742 361.313 153.188 361.214C153.339 350.466 153.194 339.693 153.188 328.942L84.6223 328.948C71.1367 328.95 58.4518 326.527 58.0962 309.008C57.862 297.47 58.119 285.867 58.1192 274.324L58.1502 167.626C58.1525 162.899 57.5757 157.212 58.1201 152.599C60.1659 135.264 76.4597 137.385 88.8268 137.374L196.033 137.375C208.723 137.376 221.436 137.548 234.124 137.376C234.598 125.833 229.827 107.526 244.073 104.288ZM151.133 235.195C151.556 232.575 151.933 226.131 153.904 224.467C156.697 222.108 173.155 225.606 177.986 227.009L179.625 217.861C178.51 215.417 174.987 205.721 173.563 204.573C164.325 208.361 151.325 213.167 142.686 217.861C143.967 220.472 149.825 238.808 151.133 235.195ZM250.553 114.616C247.93 113.557 244.377 111.724 243.241 115.515C241.104 122.647 243.176 160.069 247.005 168.14C247.496 167.005 247.559 165.747 248.055 164.659C246.879 152.787 245.595 122.543 250.553 114.616ZM162.037 361.214C163.151 361.261 164.245 361.327 165.358 361.214C166.477 361.001 167.528 361.123 168.651 361.214L168.651 328.942C166.428 328.814 164.261 328.832 162.037 328.942L162.037 361.214ZM247.313 208.284C247.897 210.175 248.424 212.107 249.094 213.968L252.326 213.968C251.806 212.019 252.044 210.239 252.326 208.284L247.313 208.284ZM273.468 372.713C272.168 367.77 276.738 363.787 281.266 363.2C284.92 361.429 287.835 360.535 291.908 360.466C292.816 356.205 293.015 351.471 293.368 347.119C291.564 345.064 289.859 342.879 287.996 340.883C287.998 346.233 288.219 351.672 287.996 357.012L287.725 357.272C282.62 362.086 269.557 356.932 269.204 370.987C269.151 373.1 271.705 374.435 273.403 373.092L273.468 372.713ZM278.989 260.976C279.015 287.226 277.625 313.156 295.358 335.581C295.401 334.238 295.426 332.916 295.358 331.572C288.011 316.108 283.237 281.895 284.746 263.777C282.838 262.821 280.937 261.849 278.989 260.976ZM332.227 383.443C331.585 382.726 330.958 381.985 330.293 381.291C324.421 381.144 317.8 380.6 313.234 385.096C309 389.264 308.175 396.877 316.894 396.275C314.289 387.204 325.331 383.786 332.227 383.443ZM237.393 396.275L244.073 396.275C243.028 386.279 247.891 378.111 257.633 375.13C258.811 374.705 259.984 374.253 261.192 373.92C258.523 362.092 267.648 352.68 278.989 351.052L278.989 328.942L196.476 328.942C196.469 339.681 196.207 350.482 196.476 361.214C217.006 362.321 234.786 375.142 237.393 396.275ZM315.377 365.049C315.378 367.599 315.432 370.164 315.377 372.713C317.898 372.739 320.417 372.774 322.937 372.713L323.135 372.402C321.452 370.417 317.555 366.168 315.377 365.049ZM403.021 279.799C403.721 278.799 404.84 273.045 406.122 270.658C410.296 262.882 418.362 256.534 424.775 250.44C412.017 246.797 401.77 270.041 403.021 279.799ZM73.7318 298.794C71.3444 298.839 68.9548 298.917 66.5688 298.794C66.5545 308.292 65.5928 318.818 77.5641 319.99C71.8831 314.26 73.7662 306.105 73.7318 298.794ZM302.129 389.98C292.806 389.992 277.463 393.301 273.468 382.499C270.109 382.485 266.678 382.326 263.328 382.499C258.533 383.272 251.446 387.613 252.426 393.415C253.184 397.899 265.848 396.29 269.089 396.29L291.908 396.275L302.129 396.275L302.129 389.98ZM301.314 371.863C305.044 365.523 307.444 332.563 307.596 324.43C307.651 321.497 308.596 318.982 305.928 317.183C304.654 322.073 304.512 327.193 304.006 332.209L301.542 355.17C298.73 379.839 294.798 362.378 284.082 371.69C280.084 375.163 279.495 382.094 286.301 381.291C286.865 372.116 293.748 371.828 301.314 371.863ZM217.711 377.736C209.398 370.926 201.658 370.209 191.542 370.198L155.628 370.185C137.462 370.18 121.193 373.29 119.438 396.275C122.994 396.273 126.586 396.159 130.137 396.275C131.884 380.041 149.771 375.108 163.437 375.121L197.353 375.104C201.124 375.101 205.068 374.91 208.817 375.345C211.888 375.702 214.634 377.323 217.711 377.736ZM247.005 199.535L250.553 199.535C254.207 199.299 253.431 194.556 254.356 190.676C264.108 149.77 315.476 133.094 351.274 152.831C353.185 153.884 360.367 159.48 361.776 159.176C342.03 133.418 297.945 131.061 272.81 150.469C257.945 161.947 245.965 180.154 247.005 199.535ZM66.5688 289.821C68.9206 289.545 71.3684 289.744 73.7318 289.821C73.3488 282.05 73.7278 274.098 73.7296 266.301L73.7265 180.936C73.7259 174.529 73.3132 167.84 73.8482 161.474C74.6581 151.836 86.8371 154.496 93.4266 154.504L197.697 154.517C210.305 154.517 223.013 154.902 235.607 154.515C235.27 151.663 235.114 148.811 234.83 145.958L90.9353 145.949C67.2822 145.943 66.5552 142.547 66.5576 168.986L66.5657 197.523C66.5761 227.9 65.5255 259.617 66.5688 289.821Z"/>
	<path fill="#B8DAE4" transform="scale(2.10938 2.10938)" d="M73.7318 289.821C73.3488 282.05 73.7278 274.098 73.7296 266.301L73.7265 180.936C73.7259 174.529 73.3132 167.84 73.8482 161.474C74.6581 151.836 86.8371 154.496 93.4266 154.504L197.697 154.517C210.305 154.517 223.013 154.902 235.607 154.515C236.664 162.313 237.455 172.303 240.763 179.489C239.166 186.229 238.15 192.579 238.285 199.535C234.348 199.557 223.731 199.276 221.118 202.005C219.428 203.769 219.416 206.817 221.368 208.392C224.184 210.664 234.098 207.907 238.285 208.284C238.831 211.107 239.713 213.841 240.763 216.514C237.018 217.7 211.95 226.132 227.433 231.132C233.122 229.616 238.26 226.441 244.073 224.939C245.192 226.979 246.368 229.005 247.313 231.132C243.781 232.567 221.977 245.185 233.106 249.403C235.651 250.367 248.551 240.7 252.326 238.576C258.288 247.12 263.493 249.521 269.578 256.067C270.053 267.362 269.289 278.507 270.511 289.821L81.8038 289.817C78.3763 289.818 69.5022 290.323 66.5688 289.821C68.9206 289.545 71.3684 289.744 73.7318 289.821ZM142.686 217.861C143.967 220.472 149.825 238.808 151.133 235.195C151.556 232.575 151.933 226.131 153.904 224.467C156.697 222.108 173.155 225.606 177.986 227.009L179.625 217.861C178.51 215.417 174.987 205.721 173.563 204.573C164.325 208.361 151.325 213.167 142.686 217.861Z"/>
	<path fill="#2E2F3A" transform="scale(2.10938 2.10938)" d="M176.437 194.088C181.1 194.452 187.055 213.056 189.086 217.861C192.989 218.304 208.219 221.372 210.388 224.031C211.03 227.304 203.96 265.995 202.429 271.688C201.539 274.997 200.854 276.001 197.331 275.645C189.358 274.84 178.433 272.184 170.201 270.785C166.317 270.022 147.44 268.401 145.606 265.44C144.39 263.476 146.803 254.798 147.422 252.348C143.82 243.764 140.48 235.085 136.937 226.48C134.736 221.133 128.887 214.487 135.714 210.992C140.338 208.625 172.476 194.637 176.437 194.088ZM142.686 217.861C143.967 220.472 149.825 238.808 151.133 235.195C151.556 232.575 151.933 226.131 153.904 224.467C156.697 222.108 173.155 225.606 177.986 227.009L179.625 217.861C178.51 215.417 174.987 205.721 173.563 204.573C164.325 208.361 151.325 213.167 142.686 217.861Z"/>
	<path fill="#ECD0B5" transform="scale(2.10938 2.10938)" d="M186.688 226.169L187.637 226.331C192.113 227.081 196.569 228.535 200.933 229.785C200.285 234.336 199.321 238.808 198.501 243.329L194.324 266.192C187.365 264.458 177.305 262.361 170.201 262.128C165.03 260.848 159.88 260.127 154.573 259.762C156.486 250.877 158.04 241.86 160.335 233.064C167.954 233.959 175.444 235.838 183.049 236.789C187.95 234.265 186.136 230.84 186.688 226.169Z"/>
	<path fill="#2E2F3A" transform="scale(2.10938 2.10938)" d="M115.989 168.14C119.841 168.14 136.198 167.427 138.318 169.038C140.237 170.495 140.271 173.997 138.656 175.682C136.53 177.9 130.461 177.046 127.728 177.041L113.875 177.011L101.526 177.051C97.6723 177.06 89.968 178.269 90.1127 172.442C90.2548 166.716 98.1769 168.109 101.964 168.114L115.989 168.14Z"/>
	<path fill="#2E2F3A" transform="scale(2.10938 2.10938)" d="M93.5107 188.725C102.32 188.629 111.137 188.714 119.947 188.725C123.64 191.159 124.661 196.279 119.438 197.788L104.043 197.811C100.016 197.814 87.6343 199.421 90.2681 191.525C90.7639 190.039 92.1894 189.342 93.5107 188.725Z"/>
	<path fill="#FDD482" transform="scale(2.10938 2.10938)" d="M250.553 199.535C254.207 199.299 253.431 194.556 254.356 190.676C264.108 149.77 315.476 133.094 351.274 152.831C353.185 153.884 360.367 159.48 361.776 159.176C371.923 168.761 377.73 186.109 378.649 199.535C373.817 199.182 365.668 198.629 361.776 201.797C355.479 211.068 374.641 207.716 378.097 207.949L378.649 207.983C378.31 209.981 377.973 211.978 377.584 213.968C373.445 213.28 365.447 210.866 361.883 213.426C352.569 220.116 373.334 222.099 374.981 222.677L372.167 228.075C368.601 226.702 360.462 222.655 356.73 224.452C346.7 229.281 366.079 234.678 367.355 235.195C346.34 262.59 299.68 267.756 272.229 246.592C267.729 243.124 264.297 238.845 260.054 235.195C263.468 233.544 271.174 232.841 272.271 229.333C274.652 221.718 264.386 224.271 261.192 224.939C259.091 225.522 257.075 226.23 255.039 227.009L253.218 222.677C255.117 222.133 256.973 221.735 258.925 221.437C261.187 221.172 264.85 221.144 266.231 219.141C267.498 217.304 266.851 214.139 264.88 213.042C261.671 211.256 255.723 213.133 252.326 213.968C251.806 212.019 252.044 210.239 252.326 208.284C256.144 208.202 266.062 210.022 265.615 203.614C265.512 202.147 264.352 201.17 263.328 200.262C259.275 199.312 254.698 199.569 250.553 199.535Z"/>
	<path fill="#FFE490" transform="scale(2.10938 2.10938)" d="M253.218 222.677C255.117 222.133 256.973 221.735 258.925 221.437C259.415 221.463 259.736 221.465 260.195 221.655L259.569 221.479L259.962 221.727C258.909 221.85 256.853 221.822 256.02 222.437C256.726 223.101 257.652 222.725 258.217 223.508C257.741 224.514 256.723 224.797 256.371 225.874C257.269 225.924 259.801 225.002 260.629 224.592L261.155 224.663L261.192 224.939C259.091 225.522 257.075 226.23 255.039 227.009L253.218 222.677Z"/>
	<path fill="#2E2F3A" transform="scale(2.10938 2.10938)" d="M307.527 201.797C310.296 202.024 311.309 202.585 313.165 204.573C321.16 197.044 330.392 207.657 318.018 216.514C317.927 232.997 331.174 220.281 332.635 220.247C338.703 220.107 338.006 226.661 333.6 230.28C328.308 234.627 324.291 233.628 318.018 233.064C316.702 232.114 315.522 230.835 314.266 229.785C299.455 241.845 285.735 225.429 292.13 221.171C296.329 218.374 298.394 224.85 304.225 226.169C308.946 224.538 309.325 221.078 309.205 216.514C302.871 212.877 298.718 204.219 307.527 201.797Z"/>
	<path fill="#2E2F3A" transform="scale(2.10938 2.10938)" d="M282.432 171.084C288.69 169.311 295.827 174.785 298.348 180.097C300.792 185.249 299.214 192.683 293.356 190.05C289.607 188.365 292.945 182.162 286.301 179.489C276.968 177.604 278.496 183.499 275.787 188.398C272.458 194.42 262.889 186.588 271.379 176.479C274.363 172.925 277.909 171.446 282.432 171.084Z"/>
	<path fill="#2E2F3A" transform="scale(2.10938 2.10938)" d="M342.261 171.084C355.983 169.636 363.911 186 357.873 189.55C350.174 194.077 353.258 182.398 346.26 180.266C338.083 177.334 339.02 183.91 336.189 188.751C330.293 198.832 321.931 174.039 342.261 171.084Z"/>
	<path fill="#FDD482" transform="scale(2.10938 2.10938)" d="M343.86 262.128C351.224 271.339 358.692 278.055 365.668 286.55C382.45 306.986 393.213 334.038 390.282 360.798C387.923 382.335 372.065 394.832 351.194 396.71C340.126 397.706 329.192 395.016 316.894 396.275C314.289 387.204 325.331 383.786 332.227 383.443C335.884 386.257 346.716 391.08 346.057 382.725C345.829 379.837 323.473 370.093 336.139 354.734C343.995 345.208 358.702 350.901 361.85 346.273C368.623 336.318 345.483 339.995 342.056 341.091C334.104 343.633 329.102 348.501 325.347 355.78C324.772 357.583 324.294 359.362 323.904 361.214C322.656 359.243 321.067 357.112 320.319 354.898C313.249 343.189 319.657 322.261 330.699 314.962C332.367 313.86 334.933 312.827 336.109 311.191C338.697 307.59 334.5 301.687 326.759 307.002C306.145 321.156 308.806 345.633 307.31 367.129C306.971 372.006 307.378 377.261 304.225 381.291C298.474 381.563 291.742 380.751 286.301 381.291C286.865 372.116 293.748 371.828 301.314 371.863C305.044 365.523 307.444 332.563 307.596 324.43C307.651 321.497 308.596 318.982 305.928 317.183C305.876 314.783 306.204 311.168 304.382 309.347C295.471 300.44 295.784 329.29 295.358 331.572C288.011 316.108 283.237 281.895 284.746 263.777C305.872 270.888 322.578 269.921 343.86 262.128Z"/>
	<path fill="#FFE490" transform="scale(2.10938 2.10938)" d="M320.319 354.898L320.484 354.647C326.895 359.718 323.594 354.969 325.347 355.78C324.772 357.583 324.294 359.362 323.904 361.214C322.656 359.243 321.067 357.112 320.319 354.898Z"/>
	<path fill="#47A1C4" transform="scale(2.10938 2.10938)" d="M66.5688 298.794C73.4642 298.298 80.9963 298.803 87.9818 298.803L271.794 298.794C272.896 306.158 275.255 312.912 277.403 319.99L84.1238 320.015C81.9802 320.021 79.6964 320.174 77.5641 319.99C71.8831 314.26 73.7662 306.105 73.7318 298.794C71.3444 298.839 68.9548 298.917 66.5688 298.794Z"/>
	<path fill="#47A1C4" transform="scale(2.10938 2.10938)" d="M130.137 396.275C131.884 380.041 149.771 375.108 163.437 375.121L197.353 375.104C201.124 375.101 205.068 374.91 208.817 375.345C211.888 375.702 214.634 377.323 217.711 377.736C223.695 382.302 227.464 388.897 228.656 396.275L163.074 396.276C152.104 396.276 141.105 396.444 130.137 396.275Z"/>
	<path fill="#FE9C72" transform="scale(2.10938 2.10938)" d="M424.775 250.44C437.432 258.998 413.686 262.58 416.096 280.762C417.486 291.245 424.125 294.579 431.073 301.088C446.216 315.273 448.991 339.347 436.39 356.075C426.894 368.681 411.653 373.601 396.438 373.92C397.533 369.705 398.339 365.416 399.448 361.214C409.614 359.667 420.061 357.957 426.586 349.103C436.711 335.363 431.049 315.688 418.687 305.504C410.651 298.884 402.457 291.658 403.021 279.799C403.721 278.799 404.84 273.045 406.122 270.658C410.296 262.882 418.362 256.534 424.775 250.44Z"/>
	<path fill="#FE9C72" transform="scale(2.10938 2.10938)" d="M378.649 114.616C387.489 112.682 381.443 158.405 378.649 168.14C375.015 161.694 370.778 156.181 365.812 150.722C359.232 143.938 351.935 139.84 343.86 135.251C349.389 128.373 369.323 115.653 378.649 114.616Z"/>
	<path fill="#FE9C72" transform="scale(2.10938 2.10938)" d="M250.553 114.616C263.717 119.547 271.919 126.842 282.432 135.251C262.813 142.467 259.927 152.148 248.055 164.659C246.879 152.787 245.595 122.543 250.553 114.616Z"/>
	<path fill="#B8DAE4" transform="scale(2.10938 2.10938)" d="M168.651 328.942L187.556 328.942L187.556 361.214L165.358 361.214C166.477 361.001 167.528 361.123 168.651 361.214L168.651 328.942Z"/>
	<path fill="#FE9C72" transform="scale(2.10938 2.10938)" d="M281.266 363.2C276.768 366.644 276.259 368.587 273.468 372.713C272.168 367.77 276.738 363.787 281.266 363.2Z"/>
</svg>
